<svg width="189" height="266" viewBox="0 0 189 266" fill="none" xmlns="http://www.w3.org/2000/svg">
<path d="M67.0072 132.661C72.5837 135.267 78.9533 136.744 85.7179 136.744C93.1652 136.744 100.134 134.953 106.093 131.838C97.7533 107.09 85.9677 73.416 85.9677 73.416L67.0072 132.661ZM45.9562 101.973C45.9562 114.66 53.726 125.76 65.3313 131.832C72.1658 110.729 80.9599 82.454 84.5527 70.8584C84.1553 69.955 83.3486 68.8869 81.7118 68.1935C80.4664 67.6661 79.0694 67.5039 77.8104 67.5067C58.455 69.9993 45.9562 85.0105 45.9562 101.973ZM44.0771 102.013C44.0771 81.8821 60.9981 64.3719 86.1917 65.5601H95.3753L114.726 122.779C115.92 120.901 117.828 117.526 119.835 112.478C123.15 104.139 122.075 79.8242 122.075 79.8242V32.0725C122.075 32.0725 122.013 26.9209 117.984 26.5424H111.324V24.9624H144.922V26.5424H139.609C137.291 26.9167 133.992 28.0743 133.992 31.6336V91.016C133.992 91.016 133.64 116.017 116.323 127.501L125.122 153.514C125.122 153.514 126.331 158.474 130.363 160.054C132.883 161.042 135.42 161.309 136.969 161.371H138.471H139.099V163.038H105.679V161.371H109.317C111.47 160.866 113.988 159.789 114.191 157.508C114.273 156.572 111.042 146.562 106.738 133.753C100.637 136.752 93.5856 138.464 86.0737 138.464C79.0028 138.464 72.3396 136.947 66.4929 134.268L59.7154 155.446C59.7154 155.446 58.3714 158.474 60.2978 159.922C61.6668 160.952 63.9644 161.272 65.1787 161.371H68.1375V163.038H44.7527V161.371H49.1612C51.2209 161.124 54.5496 160.255 56.4899 157.289C57.34 155.989 60.6673 146.193 64.8059 133.451C52.4018 127.116 44.0771 115.409 44.0771 102.013Z" fill="black"/>
<path opacity="0.6" d="M3.10798 227H0.85798L4.95457 215.364H7.55684L11.6591 227H9.40912L6.30116 217.75H6.21025L3.10798 227ZM3.18184 222.438H9.31821V224.131H3.18184V222.438ZM27.2343 215.364V227H25.3593L19.8763 219.074H19.7797V227H17.6718V215.364H19.5582L25.0354 223.295H25.1377V215.364H27.2343ZM37.9543 227H34.0112V215.364H38.0339C39.1892 215.364 40.1816 215.597 41.0112 216.062C41.8445 216.525 42.4846 217.189 42.9316 218.057C43.3786 218.924 43.6021 219.962 43.6021 221.17C43.6021 222.383 43.3767 223.424 42.9259 224.295C42.479 225.167 41.8331 225.835 40.9884 226.301C40.1475 226.767 39.1362 227 37.9543 227ZM36.1191 225.176H37.8521C38.6627 225.176 39.3388 225.028 39.8805 224.733C40.4221 224.434 40.8293 223.989 41.1021 223.398C41.3748 222.803 41.5112 222.061 41.5112 221.17C41.5112 220.28 41.3748 219.542 41.1021 218.955C40.8293 218.364 40.4259 217.922 39.8918 217.631C39.3615 217.335 38.7024 217.188 37.9146 217.188H36.1191V225.176ZM50.0849 227V215.364H54.4485C55.3425 215.364 56.0925 215.519 56.6985 215.83C57.3084 216.14 57.7686 216.576 58.0792 217.136C58.3936 217.693 58.5508 218.343 58.5508 219.085C58.5508 219.831 58.3917 220.479 58.0735 221.028C57.7592 221.574 57.2951 221.996 56.6815 222.295C56.0679 222.591 55.3141 222.739 54.4201 222.739H51.3122V220.989H54.136C54.6588 220.989 55.0868 220.917 55.4201 220.773C55.7535 220.625 55.9997 220.411 56.1588 220.131C56.3217 219.847 56.4031 219.498 56.4031 219.085C56.4031 218.672 56.3217 218.32 56.1588 218.028C55.9959 217.733 55.7478 217.509 55.4145 217.358C55.0811 217.203 54.6512 217.125 54.1247 217.125H52.1929V227H50.0849ZM56.0963 221.727L58.977 227H56.6247L53.7951 221.727H56.0963ZM64.9712 227V215.364H72.5393V217.131H67.0791V220.29H72.1473V222.057H67.0791V225.233H72.5848V227H64.9712ZM67.9712 214.216L69.2439 211.619H71.2553L69.5109 214.216H67.9712ZM85.4938 218.562C85.4407 218.066 85.2173 217.68 84.8233 217.403C84.4332 217.127 83.9256 216.989 83.3006 216.989C82.8612 216.989 82.4843 217.055 82.1699 217.188C81.8555 217.32 81.615 217.5 81.4483 217.727C81.2817 217.955 81.1964 218.214 81.1926 218.506C81.1926 218.748 81.2476 218.958 81.3574 219.136C81.4711 219.314 81.6245 219.466 81.8176 219.591C82.0108 219.712 82.2248 219.814 82.4597 219.898C82.6945 219.981 82.9313 220.051 83.1699 220.108L84.2608 220.381C84.7002 220.483 85.1226 220.621 85.5279 220.795C85.937 220.97 86.3025 221.189 86.6245 221.455C86.9502 221.72 87.2078 222.04 87.3972 222.415C87.5866 222.79 87.6813 223.229 87.6813 223.733C87.6813 224.415 87.507 225.015 87.1586 225.534C86.8101 226.049 86.3063 226.453 85.6472 226.744C84.9919 227.032 84.1983 227.176 83.2665 227.176C82.3612 227.176 81.5752 227.036 80.9086 226.756C80.2457 226.475 79.7267 226.066 79.3517 225.528C78.9805 224.991 78.7798 224.335 78.7495 223.562H80.8233C80.8536 223.968 80.9786 224.305 81.1983 224.574C81.418 224.843 81.704 225.044 82.0563 225.176C82.4123 225.309 82.8101 225.375 83.2495 225.375C83.7078 225.375 84.1093 225.307 84.454 225.17C84.8025 225.03 85.0752 224.837 85.2722 224.591C85.4692 224.341 85.5695 224.049 85.5733 223.716C85.5695 223.413 85.4805 223.163 85.3063 222.966C85.132 222.765 84.8877 222.598 84.5733 222.466C84.2627 222.33 83.8991 222.208 83.4824 222.102L82.1586 221.761C81.2002 221.515 80.4426 221.142 79.8858 220.642C79.3328 220.138 79.0563 219.47 79.0563 218.636C79.0563 217.951 79.2419 217.35 79.6131 216.835C79.9881 216.32 80.4976 215.92 81.1415 215.636C81.7854 215.348 82.5146 215.205 83.329 215.205C84.1548 215.205 84.8782 215.348 85.4995 215.636C86.1245 215.92 86.615 216.316 86.9711 216.824C87.3271 217.328 87.5108 217.907 87.5222 218.562H85.4938ZM105.876 227.17C105.08 227.17 104.396 227.027 103.825 226.739C103.253 226.451 102.811 226.062 102.501 225.574C102.194 225.081 102.04 224.527 102.04 223.909C102.04 223.443 102.135 223.03 102.325 222.67C102.518 222.311 102.783 221.977 103.12 221.67C103.461 221.364 103.855 221.059 104.302 220.756L106.364 219.352C106.667 219.155 106.896 218.947 107.052 218.727C107.211 218.508 107.29 218.25 107.29 217.955C107.29 217.705 107.184 217.468 106.972 217.244C106.764 217.021 106.476 216.909 106.109 216.909C105.862 216.909 105.645 216.968 105.455 217.085C105.27 217.199 105.124 217.348 105.018 217.534C104.915 217.72 104.864 217.917 104.864 218.125C104.864 218.379 104.934 218.636 105.075 218.898C105.218 219.159 105.404 219.43 105.631 219.71C105.862 219.991 106.109 220.288 106.37 220.602L111.83 227H109.603L105.069 221.807C104.732 221.413 104.406 221.025 104.092 220.642C103.781 220.259 103.525 219.862 103.325 219.449C103.128 219.032 103.029 218.581 103.029 218.097C103.029 217.547 103.156 217.057 103.41 216.625C103.664 216.189 104.018 215.847 104.472 215.597C104.931 215.347 105.467 215.222 106.08 215.222C106.694 215.222 107.22 215.343 107.66 215.585C108.099 215.828 108.438 216.15 108.677 216.551C108.915 216.953 109.035 217.39 109.035 217.864C109.035 218.413 108.898 218.905 108.626 219.341C108.353 219.773 107.974 220.165 107.489 220.517L105.137 222.239C104.751 222.519 104.474 222.803 104.307 223.091C104.141 223.375 104.057 223.617 104.057 223.818C104.057 224.125 104.135 224.403 104.29 224.653C104.446 224.903 104.664 225.104 104.944 225.256C105.228 225.403 105.559 225.477 105.938 225.477C106.355 225.477 106.766 225.384 107.171 225.199C107.576 225.009 107.946 224.741 108.279 224.392C108.612 224.044 108.878 223.627 109.075 223.142C109.271 222.653 109.37 222.112 109.37 221.517H111.137C111.137 222.252 111.056 222.892 110.893 223.438C110.73 223.979 110.52 224.438 110.262 224.812C110.004 225.184 109.732 225.481 109.444 225.705C109.353 225.769 109.266 225.833 109.182 225.898C109.099 225.962 109.012 226.027 108.921 226.091C108.512 226.462 108.033 226.735 107.484 226.909C106.938 227.083 106.402 227.17 105.876 227.17ZM130.618 215.364H132.709V223.545C132.705 224.295 132.546 224.941 132.232 225.483C131.918 226.021 131.478 226.436 130.914 226.727C130.353 227.015 129.7 227.159 128.954 227.159C128.272 227.159 127.658 227.038 127.113 226.795C126.571 226.549 126.141 226.186 125.823 225.705C125.505 225.223 125.346 224.625 125.346 223.909H127.442C127.446 224.223 127.514 224.494 127.647 224.722C127.783 224.949 127.971 225.123 128.209 225.244C128.448 225.366 128.722 225.426 129.033 225.426C129.37 225.426 129.656 225.356 129.891 225.216C130.126 225.072 130.304 224.86 130.425 224.58C130.55 224.299 130.615 223.955 130.618 223.545V215.364ZM146.811 215.364H148.919V222.966C148.919 223.799 148.722 224.532 148.328 225.165C147.938 225.797 147.389 226.292 146.681 226.648C145.972 227 145.145 227.176 144.198 227.176C143.247 227.176 142.417 227 141.709 226.648C141.001 226.292 140.452 225.797 140.061 225.165C139.671 224.532 139.476 223.799 139.476 222.966V215.364H141.584V222.79C141.584 223.275 141.69 223.706 141.902 224.085C142.118 224.464 142.421 224.761 142.811 224.977C143.202 225.189 143.664 225.295 144.198 225.295C144.732 225.295 145.194 225.189 145.584 224.977C145.978 224.761 146.281 224.464 146.493 224.085C146.705 223.706 146.811 223.275 146.811 222.79V215.364ZM155.691 227V215.364H157.798V225.233H162.923V227H155.691ZM171.341 215.364V227H169.233V215.364H171.341ZM179.598 227H177.348L181.445 215.364H184.047L188.149 227H185.899L182.791 217.75H182.7L179.598 227ZM179.672 222.438H185.808V224.131H179.672V222.438Z" fill="black"/>
<path opacity="0.4" d="M32.3897 262V260.477L36.4295 256.517C36.8159 256.127 37.1378 255.78 37.3954 255.477C37.653 255.174 37.8462 254.881 37.9749 254.597C38.1037 254.312 38.1681 254.009 38.1681 253.688C38.1681 253.32 38.0848 253.006 37.9181 252.744C37.7515 252.479 37.5223 252.275 37.2306 252.131C36.939 251.987 36.6075 251.915 36.2363 251.915C35.8537 251.915 35.5185 251.994 35.2306 252.153C34.9427 252.309 34.7193 252.53 34.5602 252.818C34.4049 253.106 34.3272 253.449 34.3272 253.847H32.3215C32.3215 253.108 32.4901 252.466 32.8272 251.92C33.1643 251.375 33.6284 250.953 34.2193 250.653C34.814 250.354 35.4958 250.205 36.2647 250.205C37.045 250.205 37.7306 250.35 38.3215 250.642C38.9124 250.934 39.3708 251.333 39.6965 251.841C40.0261 252.348 40.1909 252.928 40.1909 253.58C40.1909 254.015 40.1075 254.443 39.9409 254.864C39.7742 255.284 39.4806 255.75 39.0602 256.261C38.6435 256.773 38.0583 257.392 37.3045 258.119L35.2988 260.159V260.239H40.367V262H32.3897ZM50.9834 262.159C50.1652 262.159 49.4379 262.019 48.8015 261.739C48.169 261.458 47.669 261.068 47.3015 260.568C46.9341 260.068 46.739 259.491 46.7163 258.835H48.8527C48.8716 259.15 48.9758 259.424 49.1652 259.659C49.3546 259.89 49.6065 260.07 49.9209 260.199C50.2352 260.328 50.5875 260.392 50.9777 260.392C51.3943 260.392 51.7637 260.32 52.0856 260.176C52.4076 260.028 52.6595 259.824 52.8413 259.562C53.0231 259.301 53.1121 259 53.1084 258.659C53.1121 258.307 53.0212 257.996 52.8356 257.727C52.65 257.458 52.3811 257.248 52.0288 257.097C51.6803 256.945 51.2599 256.869 50.7674 256.869H49.739V255.244H50.7674C51.1727 255.244 51.5269 255.174 51.8299 255.034C52.1368 254.894 52.3773 254.697 52.5515 254.443C52.7258 254.186 52.811 253.888 52.8072 253.551C52.811 253.222 52.7371 252.936 52.5856 252.693C52.4379 252.447 52.2277 252.256 51.9549 252.119C51.686 251.983 51.3697 251.915 51.0061 251.915C50.65 251.915 50.3205 251.979 50.0174 252.108C49.7144 252.237 49.4701 252.42 49.2845 252.659C49.0989 252.894 49.0004 253.174 48.989 253.5H46.9606C46.9758 252.848 47.1633 252.277 47.5231 251.784C47.8868 251.288 48.3716 250.902 48.9777 250.625C49.5837 250.345 50.2637 250.205 51.0174 250.205C51.794 250.205 52.4682 250.35 53.0402 250.642C53.6159 250.93 54.061 251.318 54.3754 251.807C54.6898 252.295 54.847 252.835 54.847 253.426C54.8508 254.081 54.6576 254.631 54.2674 255.074C53.8811 255.517 53.3735 255.807 52.7447 255.943V256.034C53.5629 256.148 54.1898 256.451 54.6254 256.943C55.0648 257.432 55.2826 258.04 55.2788 258.767C55.2788 259.419 55.0932 260.002 54.722 260.517C54.3546 261.028 53.847 261.43 53.1993 261.722C52.5553 262.013 51.8167 262.159 50.9834 262.159ZM62.6551 262.125C62.3104 262.125 62.015 262.004 61.7687 261.761C61.5225 261.519 61.4013 261.223 61.4051 260.875C61.4013 260.534 61.5225 260.242 61.7687 260C62.015 259.758 62.3104 259.636 62.6551 259.636C62.9884 259.636 63.2782 259.758 63.5244 260C63.7744 260.242 63.9013 260.534 63.9051 260.875C63.9013 261.106 63.8407 261.316 63.7233 261.506C63.6097 261.695 63.4581 261.847 63.2687 261.96C63.0831 262.07 62.8786 262.125 62.6551 262.125ZM73.7814 250.364V262H71.6735V252.415H71.6053L68.8837 254.153V252.222L71.7757 250.364H73.7814ZM81.216 262V260.477L85.2557 256.517C85.6421 256.127 85.9641 255.78 86.2216 255.477C86.4792 255.174 86.6724 254.881 86.8012 254.597C86.93 254.312 86.9944 254.009 86.9944 253.688C86.9944 253.32 86.911 253.006 86.7444 252.744C86.5777 252.479 86.3485 252.275 86.0569 252.131C85.7652 251.987 85.4338 251.915 85.0626 251.915C84.68 251.915 84.3448 251.994 84.0569 252.153C83.769 252.309 83.5455 252.53 83.3864 252.818C83.2311 253.106 83.1535 253.449 83.1535 253.847H81.1478C81.1478 253.108 81.3163 252.466 81.6535 251.92C81.9906 251.375 82.4546 250.953 83.0455 250.653C83.6402 250.354 84.322 250.205 85.091 250.205C85.8713 250.205 86.5569 250.35 87.1478 250.642C87.7387 250.934 88.197 251.333 88.5228 251.841C88.8523 252.348 89.0171 252.928 89.0171 253.58C89.0171 254.015 88.9338 254.443 88.7671 254.864C88.6004 255.284 88.3069 255.75 87.8864 256.261C87.4698 256.773 86.8845 257.392 86.1307 258.119L84.1251 260.159V260.239H89.1932V262H81.216ZM96.9232 262.125C96.5785 262.125 96.2831 262.004 96.0369 261.761C95.7907 261.519 95.6695 261.223 95.6732 260.875C95.6695 260.534 95.7907 260.242 96.0369 260C96.2831 259.758 96.5785 259.636 96.9232 259.636C97.2566 259.636 97.5463 259.758 97.7926 260C98.0426 260.242 98.1695 260.534 98.1732 260.875C98.1695 261.106 98.1088 261.316 97.9914 261.506C97.8778 261.695 97.7263 261.847 97.5369 261.96C97.3513 262.07 97.1467 262.125 96.9232 262.125ZM104.754 262V260.477L108.794 256.517C109.18 256.127 109.502 255.78 109.76 255.477C110.017 255.174 110.211 254.881 110.339 254.597C110.468 254.312 110.533 254.009 110.533 253.688C110.533 253.32 110.449 253.006 110.283 252.744C110.116 252.479 109.887 252.275 109.595 252.131C109.303 251.987 108.972 251.915 108.601 251.915C108.218 251.915 107.883 251.994 107.595 252.153C107.307 252.309 107.084 252.53 106.925 252.818C106.769 253.106 106.692 253.449 106.692 253.847H104.686C104.686 253.108 104.854 252.466 105.192 251.92C105.529 251.375 105.993 250.953 106.584 250.653C107.178 250.354 107.86 250.205 108.629 250.205C109.409 250.205 110.095 250.35 110.686 250.642C111.277 250.934 111.735 251.333 112.061 251.841C112.39 252.348 112.555 252.928 112.555 253.58C112.555 254.015 112.472 254.443 112.305 254.864C112.139 255.284 111.845 255.75 111.425 256.261C111.008 256.773 110.423 257.392 109.669 258.119L107.663 260.159V260.239H112.731V262H104.754ZM123.473 262.222C122.537 262.222 121.734 261.985 121.064 261.511C120.397 261.034 119.884 260.347 119.524 259.449C119.168 258.547 118.99 257.462 118.99 256.193C118.994 254.924 119.173 253.845 119.53 252.955C119.889 252.061 120.403 251.379 121.069 250.909C121.74 250.439 122.541 250.205 123.473 250.205C124.405 250.205 125.206 250.439 125.876 250.909C126.547 251.379 127.06 252.061 127.416 252.955C127.776 253.848 127.956 254.928 127.956 256.193C127.956 257.466 127.776 258.553 127.416 259.455C127.06 260.352 126.547 261.038 125.876 261.511C125.209 261.985 124.408 262.222 123.473 262.222ZM123.473 260.443C124.2 260.443 124.774 260.085 125.194 259.369C125.619 258.65 125.831 257.591 125.831 256.193C125.831 255.269 125.734 254.492 125.541 253.864C125.348 253.235 125.075 252.761 124.723 252.443C124.37 252.121 123.954 251.96 123.473 251.96C122.749 251.96 122.177 252.32 121.757 253.04C121.336 253.756 121.124 254.807 121.12 256.193C121.117 257.121 121.209 257.902 121.399 258.534C121.592 259.167 121.865 259.644 122.217 259.966C122.569 260.284 122.988 260.443 123.473 260.443ZM134.323 262V260.477L138.363 256.517C138.75 256.127 139.072 255.78 139.329 255.477C139.587 255.174 139.78 254.881 139.909 254.597C140.037 254.312 140.102 254.009 140.102 253.688C140.102 253.32 140.019 253.006 139.852 252.744C139.685 252.479 139.456 252.275 139.164 252.131C138.873 251.987 138.541 251.915 138.17 251.915C137.787 251.915 137.452 251.994 137.164 252.153C136.876 252.309 136.653 252.53 136.494 252.818C136.339 253.106 136.261 253.449 136.261 253.847H134.255C134.255 253.108 134.424 252.466 134.761 251.92C135.098 251.375 135.562 250.953 136.153 250.653C136.748 250.354 137.43 250.205 138.198 250.205C138.979 250.205 139.664 250.35 140.255 250.642C140.846 250.934 141.305 251.333 141.63 251.841C141.96 252.348 142.125 252.928 142.125 253.58C142.125 254.015 142.041 254.443 141.875 254.864C141.708 255.284 141.414 255.75 140.994 256.261C140.577 256.773 139.992 257.392 139.238 258.119L137.233 260.159V260.239H142.301V262H134.323ZM148.741 262V260.477L152.781 256.517C153.167 256.127 153.489 255.78 153.747 255.477C154.004 255.174 154.197 254.881 154.326 254.597C154.455 254.312 154.519 254.009 154.519 253.688C154.519 253.32 154.436 253.006 154.269 252.744C154.103 252.479 153.874 252.275 153.582 252.131C153.29 251.987 152.959 251.915 152.588 251.915C152.205 251.915 151.87 251.994 151.582 252.153C151.294 252.309 151.071 252.53 150.911 252.818C150.756 253.106 150.678 253.449 150.678 253.847H148.673C148.673 253.108 148.841 252.466 149.178 251.92C149.516 251.375 149.98 250.953 150.571 250.653C151.165 250.354 151.847 250.205 152.616 250.205C153.396 250.205 154.082 250.35 154.673 250.642C155.264 250.934 155.722 251.333 156.048 251.841C156.377 252.348 156.542 252.928 156.542 253.58C156.542 254.015 156.459 254.443 156.292 254.864C156.125 255.284 155.832 255.75 155.411 256.261C154.995 256.773 154.41 257.392 153.656 258.119L151.65 260.159V260.239H156.718V262H148.741Z" fill="black"/>
</svg>
